# xmcd
#
# Track frame offsets: 
#        182
#        12437
#        27042
#        40485
#        53577
#        74640
#        87200
#        100667
#        114880
#        125507
#        137985
#        151945
#        165092
#        173197
#        188755
#        199912
#        212065
#        225317
#        235980
#        246992
#        262487
#        275517
#        288460
#        302130
#        309392
#
# Disc length: 4284 seconds
#
# Revision: 5
# Processed by: cddbd v1.5.2PL0 Copyright (c) Steve Scherf et al.
# Submitted via: ExactAudioCopy v0.99pb5
#
DISCID=6110ba19
DTITLE=Various Artist - Blues With A Feelin' 3
DYEAR=1992
DGENRE=Blues
TTITLE0=Little Walter - Last Night
TTITLE1=John Lee Hooker - Sugar Mama
TTITLE2=Lightning Hopkins - Mojo Hand
TTITLE3=Muddy Waters - Mannish Boy
TTITLE4=Mike Bloomfield - Women Lovin' Eachother
TTITLE5=Elmore James - Standing At The Crossroads
TTITLE6=Johnny Guiter Watson - Someone Cares For Me
TTITLE7=Sonny Boy Williamson - Help Me
TTITLE8=Howlin' Wolf - Who's Been Talking
TTITLE9=John Lee Hooker - Trouble Blues
TTITLE10=Muddy Waters - You Can't Loose What You Ain't Never Had
TTITLE11=Little Walter - Mean Old World
TTITLE12=Big Joe Williams - Baby Please Don't Go
TTITLE13=Sonny Boy Williamson - Decoration Day
TTITLE14=John Lee Hooker - Bottle Up And Go
TTITLE15=Howlin' Wolf - Spoonful
TTITLE16=Muddy Waters - Close To You
TTITLE17=Sonny Boy Williamson - Fattening Frogs For Snakes
TTITLE18=Howlin' Wolf - You'll Be Mine
TTITLE19=Big Joe Williams - Nobody Knows When Your Down And Out
TTITLE20=Little Walter - Roller Coaster
TTITLE21=Muddy Waters - I Just Want To Make Love To You
TTITLE22=John Lee Hooker - Time Is Marching
TTITLE23=Sonny Boy Williamson - I Wonder Why
TTITLE24=Memphis Slim - For A Day
EXTD=
EXTT0=Little Walter
EXTT1=John Lee Hooker
EXTT2=Lightning Hopkins
EXTT3=Muddy Waters
EXTT4=Mike Bloomfield
EXTT5=Elmore James
EXTT6=Johnny Guiter Watson
EXTT7=Sonny Boy Williamson
EXTT8=Howlin' Wolf
EXTT9=John Lee Hooker
EXTT10=Muddy Waters
EXTT11=Little Walter
EXTT12=Big Joe Williams
EXTT13=Sonny Boy Williamson
EXTT14=John Lee Hooker
EXTT15=Howlin' Wolf
EXTT16=Muddy Waters
EXTT17=Sonny Boy Williamson
EXTT18=Howlin' Wolf
EXTT19=Big Joe Williams
EXTT20=Little Walter
EXTT21=Muddy Waters
EXTT22=John Lee Hooker
EXTT23=Sonny Boy Williamson
EXTT24=
PLAYORDER=
